<svg width="45" height="39" viewBox="0 0 45 39" fill="none" xmlns="http://www.w3.org/2000/svg">
<path d="M32.2015 33.2597C31.9082 33.2607 31.6189 33.201 31.3579 33.0855L22.0056 28.8567L12.6532 33.0855C12.3495 33.2234 12.0071 33.285 11.6649 33.2632C11.3228 33.2414 10.9945 33.1371 10.7175 32.9622C10.4405 32.7874 10.2259 32.5489 10.098 32.2739C9.97017 31.9989 9.9342 31.6984 9.99421 31.4067L11.828 22.4899L4.27277 16.1547C4.03705 15.9515 3.86983 15.6968 3.78907 15.4178C3.7083 15.1387 3.71703 14.846 3.81432 14.5709C3.92061 14.2894 4.11612 14.0393 4.37867 13.8489C4.64122 13.6586 4.9603 13.5356 5.2997 13.4939L15.7523 12.1794L20.3552 4.05451C20.5053 3.78673 20.7398 3.5609 21.0317 3.40289C21.3236 3.24488 21.6611 3.16107 22.0056 3.16107C22.3501 3.16107 22.6876 3.24488 22.9795 3.40289C23.2714 3.5609 23.5058 3.78673 23.656 4.05451L28.3138 12.1635L38.7665 13.4781C39.1059 13.5198 39.4249 13.6427 39.6875 13.8331C39.95 14.0235 40.1455 14.2736 40.2518 14.5551C40.3491 14.8301 40.3579 15.1229 40.2771 15.4019C40.1963 15.6809 40.0291 15.9357 39.7934 16.1389L32.2381 22.474L34.0719 31.3908C34.1374 31.6877 34.1031 31.9946 33.9732 32.2753C33.8432 32.5559 33.6229 32.7986 33.3384 32.9746C33.0064 33.1756 32.6065 33.2758 32.2015 33.2597Z" fill="#FAE100"/>
</svg>
