<svg width="27" height="28" viewBox="0 0 27 28" fill="none" xmlns="http://www.w3.org/2000/svg">
<path d="M19.755 24.5C19.5751 24.5007 19.3976 24.4567 19.2375 24.3717L13.5 21.2567L7.76251 24.3717C7.5762 24.4733 7.36614 24.5186 7.15622 24.5026C6.94629 24.4865 6.74492 24.4097 6.57499 24.2809C6.40506 24.1521 6.27339 23.9764 6.19495 23.7738C6.11651 23.5713 6.09444 23.3499 6.13126 23.135L7.25626 16.5667L2.62126 11.9C2.47665 11.7503 2.37406 11.5627 2.32451 11.3571C2.27496 11.1516 2.28032 10.936 2.34001 10.7333C2.40521 10.526 2.52516 10.3417 2.68623 10.2015C2.8473 10.0613 3.04305 9.97069 3.25126 9.94L9.66376 8.97166L12.4875 2.98667C12.5796 2.78942 12.7235 2.62306 12.9025 2.50667C13.0816 2.39027 13.2887 2.32854 13.5 2.32854C13.7113 2.32854 13.9184 2.39027 14.0975 2.50667C14.2766 2.62306 14.4204 2.78942 14.5125 2.98667L17.37 8.96L23.7825 9.92833C23.9907 9.95902 24.1865 10.0496 24.3475 10.1899C24.5086 10.3301 24.6286 10.5143 24.6938 10.7217C24.7534 10.9243 24.7588 11.1399 24.7093 11.3455C24.6597 11.551 24.5571 11.7387 24.4125 11.8883L19.7775 16.555L20.9025 23.1233C20.9427 23.3421 20.9216 23.5681 20.8419 23.7749C20.7622 23.9816 20.627 24.1603 20.4525 24.29C20.2488 24.438 20.0035 24.5119 19.755 24.5Z" fill="#FAE100"/>
</svg>
